<svg width="146" height="26" viewBox="0 0 146 26" fill="none" xmlns="http://www.w3.org/2000/svg">
<path d="M7.26275 23.4749C5.06714 23.4749 3.309 23.0572 1.98833 22.2219C0.667659 21.3899 0.00732422 20.1154 0.00732422 18.3986C0.00732422 17.4906 0.164154 16.7973 0.477813 16.3185C0.791472 15.8398 1.25371 15.6004 1.86452 15.6004C2.31024 15.6004 2.67343 15.716 2.95407 15.9471C3.23471 16.1782 3.37503 16.4753 3.37503 16.8385C3.37503 17.1687 3.35027 17.4576 3.30074 17.7052C3.30074 17.7713 3.28919 17.8868 3.26608 18.0519C3.23966 18.217 3.22646 18.3903 3.22646 18.5719C3.22646 19.3148 3.60285 19.8678 4.35563 20.231C5.10511 20.5942 6.15669 20.7758 7.51038 20.7758C8.91359 20.7758 10.0114 20.5232 10.8038 20.018C11.5962 19.5162 11.9924 18.8113 11.9924 17.9033C11.9924 17.342 11.8108 16.8583 11.4476 16.4522C11.0844 16.0494 10.6305 15.711 10.0857 15.437C9.54091 15.1662 8.77327 14.8328 7.78277 14.4366C6.51162 13.9413 5.47655 13.4708 4.67754 13.0251C3.87524 12.5794 3.19014 11.9719 2.62225 11.2026C2.05106 10.4366 1.76547 9.48406 1.76547 8.34498C1.76547 7.15638 2.08408 6.09984 2.7213 5.17537C3.35522 4.25091 4.27144 3.53279 5.46994 3.02103C6.66515 2.50927 8.07166 2.25339 9.68948 2.25339C10.8946 2.25339 12.0007 2.43003 13.0077 2.78331C14.0147 3.13989 14.8203 3.68137 15.4245 4.40773C16.0254 5.1341 16.3258 6.02555 16.3258 7.08209C16.3258 8.12212 16.169 8.90626 15.8554 9.43453C15.5417 9.9628 15.0795 10.2269 14.4687 10.2269C14.0394 10.2269 13.6812 10.0949 13.394 9.83073C13.1034 9.5666 12.9581 9.25294 12.9581 8.88976C12.9581 8.5761 12.9829 8.2872 13.0324 8.02307C13.082 7.52782 13.1067 7.21416 13.1067 7.08209C13.1067 6.38874 12.7683 5.86047 12.0914 5.49729C11.4146 5.1341 10.5727 4.95251 9.56567 4.95251C8.14595 4.95251 7.06135 5.21169 6.31187 5.73005C5.55909 6.25172 5.1827 6.98304 5.1827 7.92402C5.1827 8.55133 5.3775 9.08786 5.76709 9.53358C6.15339 9.97931 6.63543 10.3507 7.21323 10.6479C7.79102 10.945 8.59993 11.3 9.63996 11.7127C10.8946 12.2244 11.9016 12.6867 12.661 13.0994C13.4204 13.5121 14.0692 14.0734 14.6073 14.7832C15.1422 15.4931 15.4096 16.368 15.4096 17.4081C15.4096 19.3561 14.6717 20.8534 13.1959 21.9C11.7167 22.9499 9.73901 23.4749 7.26275 23.4749ZM20.5602 23.4006C19.5367 23.4006 18.7196 23.0292 18.1087 22.2863C17.4979 21.5434 17.1925 20.5694 17.1925 19.3643C17.1925 18.0436 17.4979 16.7923 18.1087 15.6103C18.7196 14.4316 19.5318 13.4824 20.5454 12.7626C21.5623 12.0462 22.6403 11.6879 23.7794 11.6879C24.1426 11.6879 24.3852 11.7573 24.5074 11.8959C24.6329 12.0379 24.7369 12.2905 24.8194 12.6537C25.1661 12.5876 25.5293 12.5546 25.909 12.5546C26.7179 12.5546 27.1223 12.8435 27.1223 13.4213C27.1223 13.768 26.9985 14.5934 26.7509 15.8976C26.3712 17.796 26.1813 19.1167 26.1813 19.8596C26.1813 20.1072 26.2424 20.3053 26.3646 20.4539C26.49 20.6024 26.6518 20.6767 26.8499 20.6767C27.1636 20.6767 27.5433 20.4737 27.989 20.0676C28.4347 19.6648 29.0373 19.0094 29.7967 18.1014C29.9948 17.8703 30.2176 17.7547 30.4653 17.7547C30.6799 17.7547 30.8483 17.8538 30.9704 18.0519C31.0959 18.25 31.1586 18.5224 31.1586 18.8691C31.1586 19.5294 31.0018 20.0412 30.6881 20.4043C30.0113 21.2463 29.2932 21.9561 28.5338 22.5339C27.7744 23.1117 27.0398 23.4006 26.3299 23.4006C25.7851 23.4006 25.2849 23.2141 24.8293 22.841C24.377 22.4712 24.0353 21.9644 23.8041 21.3206C22.9457 22.7073 21.8644 23.4006 20.5602 23.4006ZM21.4517 20.8996C21.8149 20.8996 22.1616 20.685 22.4917 20.2558C22.8219 19.8265 23.0613 19.257 23.2098 18.5471L24.126 13.9908C23.4327 14.0073 22.7922 14.2665 22.2045 14.7684C21.6201 15.2735 21.1545 15.9388 20.8079 16.7642C20.4612 17.5897 20.2879 18.4646 20.2879 19.3891C20.2879 19.9008 20.3902 20.2805 20.5949 20.5282C20.8029 20.7758 21.0885 20.8996 21.4517 20.8996ZM41.6579 15.749C41.7075 15.7325 41.79 15.7242 41.9056 15.7242C42.1532 15.7242 42.343 15.8068 42.4751 15.9718C42.6039 16.1369 42.6682 16.3598 42.6682 16.6404C42.6682 17.1522 42.5709 17.5517 42.3761 17.8389C42.178 18.1295 41.8808 18.3408 41.4846 18.4729C40.7252 18.7205 39.9163 18.8443 39.0579 18.8443C38.3282 18.8443 37.6431 18.7453 37.0026 18.5471C36.5238 19.323 35.9956 20.1237 35.4178 20.9491C34.7574 21.8901 34.1879 22.5339 33.7092 22.8806C33.2304 23.2273 32.6856 23.4006 32.0748 23.4006C31.398 23.4006 30.8648 23.1365 30.4752 22.6082C30.0889 22.0799 29.8462 21.2463 29.7471 20.1072C29.549 17.796 29.45 15.7737 29.45 14.0404V13.1737C29.4665 12.6289 29.6151 12.2492 29.8957 12.0346C30.1764 11.82 30.5957 11.7127 31.1537 11.7127C31.5862 11.7127 31.9048 11.8068 32.1095 11.995C32.3175 12.1865 32.4215 12.5051 32.4215 12.9508C32.4215 14.8493 32.5354 17.3173 32.7632 20.3548C33.7537 18.8856 34.4966 17.7135 34.9919 16.8385C34.7442 16.3598 34.6204 15.7903 34.6204 15.1299C34.6204 14.5686 34.7442 14.0239 34.9919 13.4956C35.2395 12.9673 35.5796 12.5381 36.0121 12.2079C36.4413 11.8778 36.9266 11.7127 37.4681 11.7127C37.9502 11.7127 38.3398 11.8811 38.6369 12.2178C38.9308 12.5579 39.0777 13.0499 39.0777 13.6937C39.0777 14.4366 38.8812 15.2867 38.4883 16.2442C39.1156 16.2112 39.9493 16.0874 40.9893 15.8728L41.6579 15.749ZM51.558 17.7547C51.7726 17.7547 51.9427 17.8538 52.0681 18.0519C52.1903 18.25 52.2514 18.5224 52.2514 18.8691C52.2514 19.5294 52.0945 20.0412 51.7809 20.4043C51.1701 21.1472 50.3083 21.8323 49.1957 22.4596C48.0797 23.087 46.8861 23.4006 45.615 23.4006C43.8816 23.4006 42.5362 22.9301 41.5787 21.9891C40.6212 21.0482 40.1425 19.7605 40.1425 18.1262C40.1425 16.9871 40.3818 15.9273 40.8606 14.9467C41.3393 13.9628 42.0046 13.1819 42.8564 12.6041C43.705 12.0263 44.6658 11.7374 45.7388 11.7374C46.6963 11.7374 47.4639 12.0214 48.0417 12.5893C48.6195 13.1605 48.9084 13.9331 48.9084 14.9071C48.9084 16.0461 48.5007 17.0234 47.6851 17.8389C46.8663 18.6578 45.4829 19.3065 43.5349 19.7853C43.9476 20.5447 44.7318 20.9244 45.8874 20.9244C46.6303 20.9244 47.4771 20.6635 48.428 20.1419C49.3756 19.6235 50.1961 18.9433 50.8894 18.1014C51.0875 17.8703 51.3104 17.7547 51.558 17.7547ZM45.3178 14.1642C44.707 14.1642 44.192 14.5191 43.7727 15.229C43.35 15.9388 43.1387 16.7973 43.1387 17.8043V17.8538C44.1127 17.6227 44.8804 17.276 45.4417 16.8138C46.0029 16.3515 46.2836 15.815 46.2836 15.2042C46.2836 14.8905 46.1977 14.6396 46.0261 14.4514C45.8511 14.2599 45.615 14.1642 45.3178 14.1642ZM67.8518 17.7547C68.0664 17.7547 68.2348 17.8538 68.3569 18.0519C68.4824 18.25 68.5451 18.5224 68.5451 18.8691C68.5451 19.5294 68.3883 20.0412 68.0746 20.4043C67.3648 21.2793 66.5889 21.9974 65.7469 22.5587C64.905 23.12 63.9393 23.4006 62.8497 23.4006C59.482 23.4006 57.7982 21.0317 57.7982 16.2938C57.7982 15.5674 57.8229 14.8328 57.8725 14.0899H56.9067C56.4115 14.0899 56.0763 13.9991 55.9014 13.8175C55.7297 13.6359 55.6438 13.347 55.6438 12.9508C55.6438 12.0263 56.0153 11.5641 56.7581 11.5641H58.1696C58.4502 9.74819 58.8795 8.0891 59.4573 6.58684C60.0351 5.08458 60.7317 3.88772 61.5472 2.99627C62.366 2.10482 63.2459 1.65909 64.1869 1.65909C64.8803 1.65909 65.425 1.9645 65.8212 2.57531C66.2174 3.18612 66.4155 3.95375 66.4155 4.87822C66.4155 7.43702 65.3425 9.66565 63.1964 11.5641H65.9698C66.2339 11.5641 66.4238 11.6219 66.5393 11.7374C66.6549 11.853 66.7127 12.0676 66.7127 12.3813C66.7127 13.5204 65.78 14.0899 63.9145 14.0899H60.8935C60.8605 14.9153 60.844 15.5591 60.844 16.0214C60.844 17.7382 61.0454 18.9434 61.4482 19.6367C61.8543 20.3301 62.4948 20.6767 63.3697 20.6767C64.0796 20.6767 64.7069 20.4621 65.2517 20.0329C65.7965 19.6037 66.4403 18.9599 67.1832 18.1014C67.3813 17.8703 67.6041 17.7547 67.8518 17.7547ZM63.5183 4.0363C63.2707 4.0363 62.9934 4.345 62.6863 4.96242C62.3825 5.58313 62.0936 6.44156 61.8196 7.53772C61.5489 8.63718 61.3227 9.85549 61.1411 11.1927C62.1151 10.3507 62.8448 9.40482 63.3301 8.35489C63.8188 7.30825 64.0631 6.35572 64.0631 5.49729C64.0631 4.52329 63.8815 4.0363 63.5183 4.0363ZM80.2826 17.7547C80.4972 17.7547 80.6656 17.8538 80.7877 18.0519C80.9132 18.25 80.9759 18.5224 80.9759 18.8691C80.9759 19.5294 80.8191 20.0412 80.5054 20.4043C79.746 21.2793 78.9652 21.9974 78.1629 22.5587C77.3639 23.12 76.4526 23.4006 75.4291 23.4006C74.5872 23.4006 73.9516 23.1563 73.5224 22.6676C73.0932 22.1823 72.8786 21.4774 72.8786 20.5529C72.8786 20.0907 72.9941 19.2653 73.2252 18.0767C73.4398 17.0366 73.5471 16.3185 73.5471 15.9223C73.5471 15.6582 73.4564 15.5261 73.2748 15.5261C73.0602 15.5261 72.7547 15.8018 72.3585 16.3532C71.9623 16.9079 71.5661 17.6392 71.1699 18.5471C70.7737 19.4551 70.4518 20.4126 70.2042 21.4196C69.8905 22.7403 69.1147 23.4006 67.8765 23.4006C67.3813 23.4006 67.0544 23.2223 66.8959 22.8657C66.7407 22.5125 66.6632 21.8736 66.6632 20.9491C66.6632 20.4208 66.6714 19.9999 66.6879 19.6862L66.7127 17.7052C66.7127 15.1629 66.9719 12.5133 67.4902 9.75644C68.0119 6.99955 68.7795 4.68342 69.7932 2.80807C70.8101 0.936024 72.0284 0 73.4481 0C74.2075 0 74.8216 0.325215 75.2904 0.975645C75.7626 1.62938 75.9986 2.47625 75.9986 3.51628C75.9986 5.18363 75.5116 6.91205 74.5377 8.70156C73.5637 10.4944 71.9789 12.5876 69.7832 14.9813C69.7337 15.8398 69.709 16.723 69.709 17.6309C70.2537 16.2277 70.8596 15.0853 71.5265 14.2038C72.1968 13.319 72.8571 12.6867 73.5075 12.307C74.1613 11.9273 74.7605 11.7374 75.3053 11.7374C76.3783 11.7374 76.9149 12.274 76.9149 13.347C76.9149 13.9908 76.7333 15.1547 76.3701 16.8385C76.0564 18.2748 75.8996 19.224 75.8996 19.6862C75.8996 20.3466 76.139 20.6767 76.6177 20.6767C76.9479 20.6767 77.3391 20.4737 77.7915 20.0676C78.2471 19.6648 78.8546 19.0094 79.614 18.1014C79.8121 17.8703 80.0349 17.7547 80.2826 17.7547ZM72.9281 2.45149C72.6309 2.45149 72.3008 2.87576 71.9376 3.72429C71.5744 4.57612 71.2228 5.7251 70.8827 7.17123C70.5459 8.61407 70.2702 10.1857 70.0556 11.886C71.0792 10.6809 71.9244 9.3685 72.5913 7.94878C73.2616 6.52906 73.5967 5.24141 73.5967 4.08582C73.5967 3.55755 73.5389 3.1531 73.4233 2.87246C73.3078 2.59181 73.1427 2.45149 72.9281 2.45149ZM90.0093 17.7547C90.2239 17.7547 90.3939 17.8538 90.5194 18.0519C90.6416 18.25 90.7026 18.5224 90.7026 18.8691C90.7026 19.5294 90.5458 20.0412 90.2322 20.4043C89.6214 21.1472 88.7596 21.8323 87.6469 22.4596C86.531 23.087 85.3374 23.4006 84.0663 23.4006C82.3329 23.4006 80.9875 22.9301 80.03 21.9891C79.0725 21.0482 78.5938 19.7605 78.5938 18.1262C78.5938 16.9871 78.8331 15.9273 79.3119 14.9467C79.7906 13.9628 80.4559 13.1819 81.3077 12.6041C82.1563 12.0263 83.1171 11.7374 84.1901 11.7374C85.1476 11.7374 85.9152 12.0214 86.493 12.5893C87.0708 13.1605 87.3597 13.9331 87.3597 14.9071C87.3597 16.0461 86.9519 17.0234 86.1364 17.8389C85.3176 18.6578 83.9342 19.3065 81.9862 19.7853C82.3989 20.5447 83.1831 20.9244 84.3387 20.9244C85.0815 20.9244 85.9284 20.6635 86.8793 20.1419C87.8269 19.6235 88.6474 18.9433 89.3407 18.1014C89.5388 17.8703 89.7617 17.7547 90.0093 17.7547ZM83.7691 14.1642C83.1583 14.1642 82.6433 14.5191 82.224 15.229C81.8013 15.9388 81.59 16.7973 81.59 17.8043V17.8538C82.564 17.6227 83.3317 17.276 83.8929 16.8138C84.4542 16.3515 84.7349 15.815 84.7349 15.2042C84.7349 14.8905 84.649 14.6396 84.4773 14.4514C84.3024 14.2599 84.0663 14.1642 83.7691 14.1642ZM114.45 8.51832C114.45 9.92153 114.087 11.2092 113.36 12.3813C112.634 13.5534 111.577 14.5109 110.191 15.2537C108.804 15.9966 107.153 16.4341 105.238 16.5661L104.173 22.5339C103.761 24.8286 102.638 25.9759 100.806 25.9759C99.7988 25.9759 98.8693 25.6788 98.0175 25.0845C97.169 24.4902 96.4888 23.5822 95.9771 22.3606C95.4653 21.139 95.2094 19.6367 95.2094 17.8538C95.2094 14.5026 95.7493 11.6582 96.8289 9.32062C97.9119 6.98634 99.3646 5.23645 101.187 4.07096C103.013 2.90877 105.024 2.32768 107.219 2.32768C108.771 2.32768 110.087 2.60007 111.166 3.14484C112.249 3.68962 113.067 4.42754 113.618 5.35862C114.173 6.29299 114.45 7.34622 114.45 8.51832ZM105.684 14.0156C109.068 13.5864 110.76 11.8282 110.76 8.74118C110.76 7.65163 110.4 6.76348 109.681 6.07673C108.964 5.39328 107.855 5.05156 106.353 5.05156C104.652 5.05156 103.17 5.58808 101.905 6.66113C100.644 7.73417 99.67 9.22322 98.9832 11.1283C98.2998 13.0367 97.9581 15.2125 97.9581 17.6557C97.9581 18.6792 98.0604 19.5872 98.2651 20.3796C98.4731 21.172 98.7373 21.7861 99.0575 22.2219C99.3811 22.661 99.6915 22.8806 99.9886 22.8806C100.401 22.8806 100.715 22.3111 100.93 21.172L101.747 16.4919C101.103 16.3928 100.822 16.3515 100.905 16.368C100.41 16.2855 100.088 16.132 99.9391 15.9075C99.7905 15.6862 99.7162 15.4023 99.7162 15.0556C99.7162 14.6924 99.8186 14.4035 100.023 14.1889C100.231 13.9743 100.517 13.867 100.88 13.867C101.045 13.867 101.169 13.8753 101.251 13.8918C101.648 13.9578 101.953 13.9991 102.168 14.0156C102.382 12.728 102.688 11.0028 103.084 8.84023C103.183 8.27895 103.409 7.87779 103.762 7.63677C104.119 7.39905 104.537 7.28019 105.015 7.28019C105.56 7.28019 105.951 7.38254 106.189 7.58724C106.43 7.79525 106.551 8.12212 106.551 8.56784C106.551 8.83198 106.534 9.04659 106.501 9.21167L105.684 14.0156ZM124.999 17.7547C125.213 17.7547 125.382 17.8538 125.504 18.0519C125.629 18.25 125.692 18.5224 125.692 18.8691C125.692 19.5294 125.535 20.0412 125.222 20.4043C124.611 21.1472 123.747 21.8323 122.631 22.4596C121.519 23.087 120.327 23.4006 119.056 23.4006C117.322 23.4006 115.977 22.9301 115.019 21.9891C114.062 21.0482 113.583 19.7605 113.583 18.1262C113.583 16.9871 113.823 15.9273 114.301 14.9467C114.78 13.9628 115.444 13.1819 116.292 12.6041C117.144 12.0263 118.107 11.7374 119.18 11.7374C120.137 11.7374 120.905 12.0214 121.482 12.5893C122.06 13.1605 122.349 13.9331 122.349 14.9071C122.349 16.0461 121.94 17.0234 121.121 17.8389C120.305 18.6578 118.924 19.3065 116.976 19.7853C117.388 20.5447 118.173 20.9244 119.328 20.9244C120.071 20.9244 120.916 20.6635 121.864 20.1419C122.815 19.6235 123.637 18.9433 124.33 18.1014C124.528 17.8703 124.751 17.7547 124.999 17.7547ZM118.759 14.1642C118.148 14.1642 117.631 14.5191 117.208 15.229C116.789 15.9388 116.58 16.7973 116.58 17.8043V17.8538C117.554 17.6227 118.321 17.276 118.882 16.8138C119.444 16.3515 119.724 15.815 119.724 15.2042C119.724 14.8905 119.637 14.6396 119.462 14.4514C119.29 14.2599 119.056 14.1642 118.759 14.1642ZM134.726 17.7547C134.94 17.7547 135.11 17.8538 135.236 18.0519C135.358 18.25 135.419 18.5224 135.419 18.8691C135.419 19.5294 135.262 20.0412 134.948 20.4043C134.239 21.2793 133.463 21.9974 132.621 22.5587C131.779 23.12 130.813 23.4006 129.723 23.4006C126.356 23.4006 124.672 21.0317 124.672 16.2938C124.672 15.5674 124.697 14.8328 124.746 14.0899H123.78C123.285 14.0899 122.952 13.9991 122.78 13.8175C122.605 13.6359 122.518 13.347 122.518 12.9508C122.518 12.0263 122.889 11.5641 123.632 11.5641H125.043C125.324 9.74819 125.753 8.0891 126.331 6.58684C126.909 5.08458 127.607 3.88772 128.426 2.99627C129.241 2.10482 130.12 1.65909 131.061 1.65909C131.754 1.65909 132.299 1.9645 132.695 2.57531C133.091 3.18612 133.289 3.95375 133.289 4.87822C133.289 7.43702 132.216 9.66565 130.07 11.5641H132.844C133.108 11.5641 133.298 11.6219 133.413 11.7374C133.529 11.853 133.586 12.0676 133.586 12.3813C133.586 13.5204 132.654 14.0899 130.788 14.0899H127.767C127.734 14.9153 127.718 15.5591 127.718 16.0214C127.718 17.7382 127.921 18.9434 128.327 19.6367C128.73 20.3301 129.369 20.6767 130.243 20.6767C130.953 20.6767 131.581 20.4621 132.125 20.0329C132.67 19.6037 133.314 18.9599 134.057 18.1014C134.255 17.8703 134.478 17.7547 134.726 17.7547ZM130.392 4.0363C130.144 4.0363 129.869 4.345 129.565 4.96242C129.258 5.58313 128.969 6.44156 128.698 7.53772C128.424 8.63718 128.196 9.85549 128.015 11.1927C128.989 10.3507 129.72 9.40482 130.209 8.35489C130.694 7.30825 130.937 6.35572 130.937 5.49729C130.937 4.52329 130.755 4.0363 130.392 4.0363ZM138.019 23.9454C137.16 23.9454 136.505 23.7473 136.053 23.3511C135.597 22.9549 135.369 22.5092 135.369 22.0139C135.369 21.5847 135.526 21.2133 135.84 20.8996C136.153 20.5859 136.616 20.4291 137.227 20.4291C137.441 20.4291 137.694 20.4489 137.984 20.4885C138.271 20.5315 138.489 20.5612 138.638 20.5777C138.621 20.1485 138.527 19.744 138.356 19.3643C138.181 18.9846 137.961 18.6165 137.697 18.2599C137.433 17.9066 137.185 17.5979 136.954 17.3338C136.442 18.3078 135.936 19.1167 135.434 19.7605C134.929 20.4043 134.379 21.0152 133.785 21.5929C133.487 21.8901 133.174 22.0387 132.844 22.0387C132.579 22.0387 132.365 21.9429 132.2 21.7514C132.035 21.5632 131.952 21.3288 131.952 21.0482C131.952 20.718 132.068 20.4126 132.299 20.132L132.621 19.7358C133.529 18.6132 134.214 17.6887 134.676 16.9623C134.957 16.4836 135.287 15.8431 135.666 15.0408C136.046 14.2418 136.418 13.413 136.781 12.5546C137.094 11.8282 137.747 11.4651 138.737 11.4651C139.199 11.4651 139.521 11.5063 139.703 11.5889C139.884 11.6714 139.975 11.8035 139.975 11.9851C139.975 12.0841 139.942 12.241 139.876 12.4556C139.81 12.6702 139.719 12.8848 139.604 13.0994C139.307 13.6937 139.158 14.1972 139.158 14.6099C139.158 14.8575 139.244 15.1299 139.416 15.4271C139.591 15.7242 139.86 16.0957 140.223 16.5414C140.751 17.2347 141.152 17.8241 141.426 18.3094C141.697 18.7981 141.832 19.3313 141.832 19.9091C141.832 20.0742 141.816 20.3053 141.783 20.6024C142.592 20.2888 143.541 19.4551 144.631 18.1014C144.829 17.8703 145.051 17.7547 145.299 17.7547C145.514 17.7547 145.684 17.8538 145.809 18.0519C145.931 18.25 145.992 18.5224 145.992 18.8691C145.992 19.4964 145.836 20.0081 145.522 20.4043C144.697 21.4279 143.909 22.1245 143.16 22.4943C142.407 22.8674 141.477 23.0704 140.371 23.1035C139.711 23.6647 138.927 23.9454 138.019 23.9454Z" fill="black"/>
</svg>
